HIERARCHY
ROOT ui
{
	 OFFSET 0 0 0
	 CHANNELS 3 XPosition YPosition Z Position
	 EndSite
	 {
	 OFFSET 0 -1 0
	 }
}
ROOT li
{
	 OFFSET 0 0 0
	 CHANNELS 3 XPosition YPosition Z Position
	 EndSite
	 {
	 OFFSET 0 -1 0
	 }
}
ROOT ul
{
	 OFFSET 0 0 0
	 CHANNELS 3 XPosition YPosition Z Position
	 EndSite
	 {
	 OFFSET 0 -1 0
	 }
}
ROOT ll
{
	 OFFSET 0 0 0
	 CHANNELS 3 XPosition YPosition Z Position
	 EndSite
	 {
	 OFFSET 0 -1 0
	 }
}
ROOT tt
{
	 OFFSET 0 0 0
	 CHANNELS 3 XPosition YPosition Z Position
	 EndSite
	 {
	 OFFSET 0 -1 0
	 }
}
ROOT tb
{
	 OFFSET 0 0 0
	 CHANNELS 3 XPosition YPosition Z Position
	 EndSite
	 {
	 OFFSET 0 -1 0
	 }
}
ROOT td
{
	 OFFSET 0 0 0
	 CHANNELS 3 XPosition YPosition Z Position
	 EndSite
	 {
	 OFFSET 0 -1 0
	 }
}
ROOT v
{
	 OFFSET 0 0 0
	 CHANNELS 3 XPosition YPosition Z Position
	 EndSite
	 {
	 OFFSET 0 -1 0
	 }
}
ROOT bn
{
	 OFFSET 0 0 0
	 CHANNELS 3 XPosition YPosition Z Position
	 EndSite
	 {
	 OFFSET 0 -1 0
	 }
}
MOTION
Frames: 32
Frame Time: 0.002
0.0018188689947128296	0.0016875679492950439	0		0.4865005187988281	-2.404696533203125	0		-1.0155269165039063	-0.014360506057739258	0		-0.8173005981445313	-2.24551513671875	0		1.5217025146484375	-0.6977283325195313	0		3.269496337890625	-0.24837005615234375	0		4.67052099609375	-0.18895687866210936	0		5.58872900390625	0.09057685852050781	0		-0.11161396789550782	5.95999853515625	0		
0.0015749069452285767	0.00144281005859375	0		0.48630935668945313	-2.4049306640625	0		-1.0216964721679687	-0.00954006576538086	0		-0.7425767211914063	-2.251878173828125	0		1.5565435791015625	-0.6934539184570313	0		3.273462890625	-0.23460331726074218	0		4.67028125	-0.18909918212890625	0		5.58848291015625	0.09045469665527343	0		0.020349353790283204	5.9818115234375	0		
0.0013493740558624269	0.001215886950492859	0		0.5380326538085938	-2.412907470703125	0		-1.02597998046875	-0.013732169151306152	0		-0.8176675415039063	-2.246024169921875	0		1.53329296875	-0.6963067016601563	0		3.2791396484375	-0.2418399658203125	0		4.6751767578125	-0.1812897186279297	0		5.5841533203125	0.08341938781738281	0		-0.11334048461914062	5.9605361328125	0		
-0.0019008430242538452	-0.0019484319686889648	0		0.47408389282226565	-2.39916748046875	0		-0.962178466796875	-0.013902898788452148	0		-0.7459276123046875	-2.254305908203125	0		1.553087158203125	-0.69776904296875	0		3.247957275390625	-0.24051243591308594	0		4.67474072265625	-0.1973786315917969	0		5.57806201171875	0.09143861389160156	0		-0.11369747161865235	5.96032470703125	0		
9.5524001121521E-4	8.176820278167725E-4	0		0.5176480712890625	-2.420985107421875	0		-1.026373291015625	-0.014183254241943359	0		-0.8100928955078125	-2.256580322265625	0		1.532934814453125	-0.6966260375976563	0		3.279436767578125	-0.2640816955566406	0		4.67455859375	-0.19744564819335939	0		5.57787255859375	0.09139530181884765	0		-0.16507972717285158	5.957876953125	0		
7.872310280799866E-4	6.473090052604675E-4	0		0.49667825317382813	-2.41183642578125	0		-0.937521240234375	-0.013678482055664062	0		-0.7312089233398438	-2.257923828125	0		1.543798828125	-0.6959158935546875	0		3.276771728515625	-0.23012428283691405	0		4.67668701171875	-0.17752227783203126	0		5.5876865234375	0.09022845458984376	0		-0.11239813232421875	5.9579296875	0		
0.007739918231964111	0.007394001960754394	0		0.5146801147460938	-2.406236328125	0		-1.0185879516601561	-0.007676586151123047	0		-0.8110408325195313	-2.23993212890625	0		1.558740234375	-0.691243896484375	0		3.24747265625	-0.24076385498046876	0		4.66936962890625	-0.18944416809082032	0		5.57343505859375	0.083432373046875	0		-0.11369207763671875	5.95879052734375	0		
5.09552001953125E-4	3.6527898907661436E-4	0		0.5375111694335938	-2.413687255859375	0		-0.9628099975585938	-0.014647712707519531	0		-0.7463203125	-2.255027587890625	0		1.5555863037109374	-0.6942896118164062	0		3.262333740234375	-0.2420260009765625	0		4.66924560546875	-0.18945054626464844	0		5.5733037109375	0.08345018005371094	0		-0.11398077392578125	5.95865625	0		
3.981209993362427E-4	2.5241899490356445E-4	0		0.4835413818359375	-2.408003662109375	0		-1.0309864501953125	-0.01879973602294922	0		-0.7833394775390625	-2.2526240234375	0		1.5554931640625	-0.694361572265625	0		3.262228515625	-0.24205303955078125	0		4.66913916015625	-0.18944058227539062	0		5.57318994140625	0.0834839324951172	0		-0.11424895477294922	5.9585400390625	0		
-0.002740386962890625	-0.0027997469902038574	0		0.5104611206054688	-2.4114775390625	0		-0.9570890502929688	-0.01999265480041504	0		-0.7464102783203125	-2.255275146484375	0		1.5354320068359375	-0.6931285400390625	0		3.26735595703125	-0.22713970947265624	0		4.67393212890625	-0.19748896789550782	0		5.5772080078125	0.09147138214111328	0		-0.14757962036132813	5.95291943359375	0		
2.2146500647068023E-4	7.615499943494797E-5	0		0.4674285888671875	-2.41192431640625	0		-1.02304736328125	-0.01114378547668457	0		-0.8084446411132813	-2.25547802734375	0		1.53841064453125	-0.6902151489257813	0		3.247080078125	-0.24085020446777344	0		4.6689716796875	-0.18938421630859376	0		5.57712451171875	0.09152672576904297	0		-0.14780572509765624	5.95283544921875	0		
1.5275700390338898E-4	1.0071000084280968E-5	0		0.5144969482421875	-2.406658203125	0		-0.9481380615234375	-0.013314938545227051	0		-0.7783492431640625	-2.24799609375	0		1.5383577880859376	-0.6902459106445312	0		3.27617236328125	-0.2302610626220703	0		4.6630380859375	-0.18025743103027345	0		5.5829375	0.08350308990478515	0		-0.11492811584472656	5.95828955078125	0		
9.508100152015686E-5	-4.277700185775757E-5	0		0.47561041259765624	-2.39813916015625	0		-1.03128759765625	-0.019192249298095702	0		-0.7434341430664062	-2.253569091796875	0		1.555255615234375	-0.694510009765625	0		3.266034423828125	-0.23609869384765625	0		4.66885400390625	-0.18929525756835938	0		5.57287890625	0.08371456146240235	0		-0.11609969329833984	5.95924853515625	0		
4.694199934601784E-5	-8.340500295162201E-5	0		0.5373882446289062	-2.414060302734375	0		-0.9632705078125	-0.015231966972351074	0		-0.7834329223632812	-2.253049560546875	0		1.5244114990234374	-0.681074951171875	0		3.257020751953125	-0.23394456481933593	0		4.6688095703125	-0.1892421875	0		5.582828125	0.08364196014404297	0		-0.11528190612792968	5.95819140625	0		
-0.0030359089374542235	-0.0030693769454956054	0		0.45650161743164064	-2.405917236328125	0		-1.0313751220703125	-0.019301971435546874	0		-0.7803886108398438	-2.25013671875	0		1.5352105712890625	-0.6932329711914063	0		3.261740234375	-0.25098388671875	0		4.655759765625	-0.1899986114501953	0		5.57690234375	0.09180094146728515	0		-0.1134608383178711	5.95613134765625	0		
-2.6436999440193175E-5	-1.3163499534130096E-4	0		0.4943895568847656	-2.41447265625	0		-1.0133238525390624	-0.013596783638000489	0		-0.8033965454101563	-2.250838623046875	0		1.521304931640625	-0.6850263671875	0		3.2790966796875	-0.22419528198242186	0		4.680798828125	-0.18529937744140626	0		5.5768671875	0.09187461853027344	0		-0.13350485229492187	5.96239697265625	0		
0.004002869129180908	0.0038017621040344236	0		0.48754086303710936	-2.404375244140625	0		-0.944301025390625	-0.010609547615051269	0		-0.7294708862304687	-2.2569189453125	0		1.5504276123046874	-0.6754298706054688	0		3.24683203125	-0.24069642639160158	0		4.66284765625	-0.179983154296875	0		5.57683837890625	0.09194635009765625	0		-0.14876039123535156	5.95260205078125	0		
-7.708700001239776E-5	-1.3992099463939667E-4	0		0.5275284423828125	-2.40594140625	0		-0.9574658203125	-0.02043318748474121	0		-0.7413939208984375	-2.251755859375	0		1.527386474609375	-0.6770809936523438	0		3.271895263671875	-0.2350152587890625	0		4.66282666015625	-0.17992630004882812	0		5.5727001953125	0.08407231903076172	0		-0.11675831604003906	5.9591416015625	0		
-9.701699763536453E-5	-1.3071900606155396E-4	0		0.5005770568847656	-2.402541015625	0		-0.9634133911132813	-0.01534774112701416	0		-0.7434208374023438	-2.253724853515625	0		1.5442996826171875	-0.682300048828125	0		3.246794189453125	-0.24061659240722658	0		4.66867919921875	-0.18895770263671874	0		5.57267919921875	0.0841344985961914	0		-0.11683489227294921	5.95914990234375	0		
-0.0031580750942230224	-0.003070683002471924	0		0.5173013916015625	-2.421761962890625	0		-1.0374241943359375	-0.01427904987335205	0		-0.8084602661132813	-2.255783203125	0		1.5273590087890625	-0.6770301513671875	0		3.2669755859375	-0.22686526489257813	0		4.65767724609375	-0.1877520294189453	0		5.567775390625	0.09225977325439454	0		-0.1490048828125	5.95162451171875	0		
-1.3394500315189363E-4	-9.03019979596138E-5	0		0.4964231872558594	-2.41243701171875	0		-1.0174732666015625	-0.016545263290405274	0		-0.7315064086914063	-2.258863525390625	0		1.53815625	-0.6901565551757812	0		3.2498310546875	-0.23558494567871094	0		4.66685888671875	-0.17384040832519532	0		5.57675537109375	0.09217636108398437	0		-0.1490322265625	5.9526474609375	0		
-1.5360300242900848E-4	-6.046900153160095E-5	0		0.4875211791992187	-2.40427880859375	0		-1.0293486328125	-0.006345871925354004	0		-0.8112726440429687	-2.2406923828125	0		1.529366943359375	-0.6739981689453125	0		3.275894775390625	-0.22992428588867186	0		4.66275390625	-0.17974821472167968	0		5.57673583984375	0.09221163940429687	0		-0.14905769348144532	5.95267724609375	0		
-1.7539800703525544E-4	-2.4730000644922255E-5	0		0.5124353637695312	-2.40860107421875	0		-0.9634916381835937	-0.015251270294189453	0		-0.7335923461914062	-2.261768310546875	0		1.52730126953125	-0.6769362182617188	0		3.249789306640625	-0.23552192687988283	0		4.66273193359375	-0.179720703125	0		5.58259912109375	0.08415255737304687	0		-0.150040283203125	5.95472705078125	0		
-0.0032427480220794678	-0.0029400908946990967	0		0.47351913452148436	-2.4000048828125	0		-0.9635164184570313	-0.015205880165100098	0		-0.8184317626953125	-2.247509521484375	0		1.54725732421875	-0.6781870727539062	0		3.25679150390625	-0.23359423828125	0		4.6627060546875	-0.17969850158691406	0		5.57668994140625	0.09225596618652344	0		-0.11598674774169922	5.9582822265625	0		
-2.284190058708191E-4	6.375899910926819E-5	0		0.5103153991699219	-2.41148876953125	0		-0.957616943359375	-0.020238426208496092	0		-0.8085889282226563	-2.255599853515625	0		1.5272413330078125	-0.6768630981445313	0		3.26151806640625	-0.2506363525390625	0		4.6734326171875	-0.1968348388671875	0		5.576662109375	0.09226985931396485	0		-0.14907637023925782	5.95180322265625	0		
-2.6046600937843325E-4	1.167140007019043E-4	0		0.496253173828125	-2.412239013671875	0		-1.02352783203125	-0.011234515190124512	0		-0.8015376586914063	-2.24864208984375	0		1.547173828125	-0.6791072387695313	0		3.258971435546875	-0.21656732177734375	0		4.65981591796875	-0.16761795043945313	0		5.58073046875	0.09922483825683594	0		-0.11399773406982422	5.95635546875	0		
0.0037605440616607665	0.004118195056915283	0		0.5402369995117188	-2.409814208984375	0		-0.9485858154296875	-0.013241618156433106	0		-0.7995625610351562	-2.24660546875	0		1.5353057861328125	-0.666889404296875	0		3.24966259765625	-0.235402587890625	0		4.6626064453125	-0.17963670349121094	0		5.576595703125	0.0922986831665039	0		-0.11595848083496094	5.95844384765625	0		
-3.3625099062919615E-4	2.414419949054718E-4	0		0.512195556640625	-2.408351806640625	0		-0.9636529541015625	-0.014953506469726563	0		-0.7416832275390625	-2.251364501953125	0		1.547101806640625	-0.6780066528320312	0		3.240650390625	-0.23323356628417968	0		4.66256494140625	-0.17960746765136718	0		5.57655615234375	0.09232080841064454	0		-0.11693756866455078	5.95952490234375	0		
-0.003423353910446167	-0.002643596887588501	0		0.537059326171875	-2.413641845703125	0		-0.9677544555664063	-0.018817071914672853	0		-0.7708414916992188	-2.257870849609375	0		1.52706884765625	-0.67665966796875	0		3.2614873046875	-0.2414858856201172	0		4.66251953125	-0.17956985473632814	0		5.5723984375	0.08440992736816406	0		-0.16320620727539062	5.9412587890625	0		
-4.299600124359131E-4	3.9042800664901734E-4	0		0.4830721130371094	-2.407793701171875	0		-0.9578192138671875	-0.019877002716064452	0		-0.7438359985351563	-2.253176513671875	0		1.5469989013671874	-0.6778787231445312	0		3.248839599609375	-0.2132454071044922	0		4.6573544921875	-0.18744923400878907	0		5.5764638671875	0.09239408111572266	0		-0.14904750061035157	5.95313525390625	0		
-4.8431900143623355E-4	4.7325900197029113E-4	0		0.5208736572265625	-2.417257568359375	0		-1.037793701171875	-0.013642267227172851	0		-0.8038657836914063	-2.2502294921875	0		1.515116943359375	-0.665344970703125	0		3.265466796875	-0.23541912841796875	0		4.66241357421875	-0.17946026611328125	0		5.57640966796875	0.09245140838623046	0		-0.11599193572998047	5.95874462890625	0		
-5.435389876365662E-4	5.614150166511536E-4	0		0.4869993896484375	-2.403683837890625	0		-0.9588180541992187	-0.011686071395874024	0		-0.727980712890625	-2.254230224609375	0		1.5550234375	-0.6678339233398437	0		3.254609130859375	-0.22118148803710938	0		4.65135546875	-0.1792241668701172	0		5.57635107421875	0.09252768707275391	0		0.01726358985900879	5.978921875	0		
